<svg xmlns="http://www.w3.org/2000/svg" version="1.1" xmlns:xlink="http://www.w3.org/1999/xlink" xmlns:svgjs="http://svgjs.dev/svgjs" width="1000" height="623" viewBox="0 0 1000 623"><g transform="matrix(1,0,0,1,-0.6060606060606233,0.2522267206477409)"><svg viewBox="0 0 396 247" data-background-color="#ffffff" preserveAspectRatio="xMidYMid meet" height="623" width="1000" xmlns="http://www.w3.org/2000/svg" xmlns:xlink="http://www.w3.org/1999/xlink"><g id="tight-bounds" transform="matrix(1,0,0,1,0.2400000000000091,-0.09999999999999432)"><svg viewBox="0 0 395.52 247.2" height="247.2" width="395.52"><g><svg></svg></g><g><svg viewBox="0 0 395.52 247.2" height="247.2" width="395.52"><mask id="64248d4c-e81e-43ff-859f-779c3fe37c92"><rect width="640" height="400" fill="white"></rect><g transform="matrix(1,0,0,1,118.65599999999999,81.4379695431472)"><svg viewBox="0 0 158.208 84.32406091370558" height="84.32406091370558" width="158.208"><g><svg viewBox="0 0 158.208 84.32406091370558" height="84.32406091370558" width="158.208"><g><svg viewBox="0 0 158.208 84.32406091370558" height="84.32406091370558" width="158.208"><g><svg viewBox="0 0 158.208 84.32406091370558" height="84.32406091370558" width="158.208"><g id="SvgjsG14416"><svg viewBox="0 0 158.208 84.32406091370558" height="84.32406091370558" width="158.208" id="SvgjsSvg14415"><g><svg viewBox="0 0 158.208 84.32406091370558" height="84.32406091370558" width="158.208"><g transform="matrix(1,0,0,1,0,0)"><svg width="158.208" viewBox="-0.7999999523162842 -39.5 79.80000305175781 43" height="84.32406091370558" data-palette-color="url(#90777d36-ce33-4aa6-96fa-a238995d89d3)"><path d="M8.5-13.6L8.5-15.15Q8.5-16.5 8.72-17.65 8.95-18.8 9.3-19.8L9.3-19.8 12.5-28Q13-29.25 13.6-30.13 14.2-31 15.7-31L15.7-31 20.6-31Q22-31 22.6-30.13 23.2-29.25 23.75-27.95L23.75-27.95 27.2-19.8Q27.55-18.8 27.78-17.65 28-16.5 28-15.15L28-15.15 28-13.6 8.5-13.6ZM16.5-25.5L16.5-25.5 14.15-17.9 22-17.9 19.65-25.5Q19.45-25.95 19.23-26.15 19-26.35 18.7-26.35L18.7-26.35 17.45-26.35Q17.15-26.35 16.93-26.15 16.7-25.95 16.5-25.5ZM28-13.1L28-4.5 28.5-4.5 28.5-15.15Q28.5-16.55 28.28-17.73 28.05-18.9 27.65-20L27.65-20 24.2-28.15Q23.6-29.6 22.93-30.55 22.25-31.5 20.6-31.5L20.6-31.5 15.7-31.5Q14-31.5 13.3-30.55 12.6-29.6 12.05-28.2L12.05-28.2 8.85-20Q8.45-18.9 8.22-17.73 8-16.55 8-15.15L8-15.15 8-4.5 8.5-4.5 8.5-13.1 28-13.1ZM13.65-8.8L13.65-1.8Q13.65-0.85 13.23-0.43 12.8 0 11.85 0L11.85 0 4.5 0Q3.55 0 3.13-0.43 2.7-0.85 2.7-1.8L2.7-1.8 2.7-15Q2.7-16.5 3.18-18.45 3.65-20.4 4.65-23L4.65-23 9-34.35Q9.3-35.2 9.93-35.6 10.55-36 11.55-36L11.55-36 25-36Q25.95-36 26.58-35.6 27.2-35.2 27.5-34.35L27.5-34.35 31.85-23Q32.85-20.4 33.33-18.45 33.8-16.5 33.8-15L33.8-15 33.8-1.8Q33.8-0.85 33.38-0.43 32.95 0 32 0L32 0 24.45 0Q23.45 0 22.98-0.43 22.5-0.85 22.5-1.8L22.5-1.8 22.5-8.8 13.65-8.8ZM57.55-19.25L57.55-19.25Q56.65-19.25 56.25-19.65 55.85-20.05 55-21.35L55-21.35 48.9-30.65Q48.6-31.15 48.2-31.33 47.8-31.5 47.4-31.5L47.4-31.5 46.55-31.5Q45.9-31.5 45.57-31.13 45.25-30.75 45.25-29.95L45.25-29.95 45.25-4.5 45.75-4.5 45.75-29.95Q45.75-30.35 45.9-30.68 46.05-31 46.55-31L46.55-31 47.3-31Q47.65-31 47.92-30.9 48.2-30.8 48.5-30.3L48.5-30.3 54.6-21.1Q55.5-19.75 55.97-19.25 56.45-18.75 57.55-18.75L57.55-18.75Q58.65-18.75 59.12-19.25 59.6-19.75 60.5-21.1L60.5-21.1 66.6-30.3Q66.9-30.8 67.15-30.9 67.4-31 67.75-31L67.75-31 68.5-31Q69-31 69.17-30.68 69.35-30.35 69.35-29.95L69.35-29.95 69.35-4.5 69.85-4.5 69.85-29.95Q69.85-30.75 69.52-31.13 69.2-31.5 68.5-31.5L68.5-31.5 67.65-31.5Q67.25-31.5 66.87-31.33 66.5-31.15 66.2-30.65L66.2-30.65 60.1-21.35Q59.25-20.05 58.85-19.65 58.45-19.25 57.55-19.25ZM49.2 0L49.2 0 41.75 0Q40.8 0 40.37-0.43 39.95-0.85 39.95-1.8L39.95-1.8 39.95-34.2Q39.95-35.15 40.37-35.58 40.8-36 41.75-36L41.75-36 49.8-36Q50.6-36 51.12-35.65 51.65-35.3 52.1-34.5L52.1-34.5 56.6-26.35Q56.85-25.9 57.02-25.7 57.2-25.5 57.5-25.5L57.5-25.5 57.95-25.5Q58.25-25.5 58.42-25.7 58.6-25.9 58.85-26.35L58.85-26.35 63.3-34.5Q63.75-35.3 64.27-35.65 64.8-36 65.6-36L65.6-36 73.7-36Q74.65-36 75.07-35.58 75.5-35.15 75.5-34.2L75.5-34.2 75.5-1.8Q75.5-0.85 75.07-0.43 74.65 0 73.7 0L73.7 0 66 0Q65.05 0 64.62-0.43 64.2-0.85 64.2-1.8L64.2-1.8 64.2-19.4 61.25-13.95Q60.8-13.1 60.17-12.73 59.55-12.35 58.6-12.35L58.6-12.35 56.6-12.35Q55.65-12.35 55.02-12.73 54.4-13.1 53.95-13.95L53.95-13.95 51-19.4 51-1.8Q51-0.85 50.57-0.43 50.15 0 49.2 0Z" opacity="1" transform="matrix(1,0,0,1,0,0)" fill="black" class="wordmark-text-0" id="SvgjsPath14414" stroke-width="6" stroke="black" stroke-linejoin="round"></path></svg></g></svg></g></svg></g></svg></g><g></g></svg></g></svg></g></svg></g></mask><g transform="matrix(1,0,0,1,118.65599999999999,81.4379695431472)"><svg viewBox="0 0 158.208 84.32406091370558" height="84.32406091370558" width="158.208"><g><svg viewBox="0 0 158.208 84.32406091370558" height="84.32406091370558" width="158.208"><g><svg viewBox="0 0 158.208 84.32406091370558" height="84.32406091370558" width="158.208"><g><svg viewBox="0 0 158.208 84.32406091370558" height="84.32406091370558" width="158.208"><g id="textblocktransform"><svg viewBox="0 0 158.208 84.32406091370558" height="84.32406091370558" width="158.208" id="textblock"><g><svg viewBox="0 0 158.208 84.32406091370558" height="84.32406091370558" width="158.208"><g transform="matrix(1,0,0,1,0,0)"><svg width="158.208" viewBox="-0.7999999523162842 -39.5 79.80000305175781 43" height="84.32406091370558" data-palette-color="url(#90777d36-ce33-4aa6-96fa-a238995d89d3)"></svg></g></svg></g></svg></g></svg></g><g></g></svg></g></svg></g></svg></g><g mask="url(#64248d4c-e81e-43ff-859f-779c3fe37c92)"><g transform="matrix(3.2391018478857907, 0, 0, 3.2391018478857907, 43.25485174080214, 1)"><svg xmlns="http://www.w3.org/2000/svg" xmlns:xlink="http://www.w3.org/1999/xlink" version="1.1" x="0" y="0" viewBox="2.3000001907348633 12.100000381469727 95.39999389648438 75.69999694824219" enable-background="new 0 0 100 100" xml:space="preserve" height="75.69999694824219" width="95.39999389648438" class="icon-none" data-fill-palette-color="accent" id="none"></svg></g></g></svg></g><defs></defs><mask id="091e4fa2-5ff2-4795-bdeb-6b28b4bf4aaa"><g id="SvgjsG14426"><svg viewBox="0 0 395.52 247.2" height="247.2" width="395.52"><g><svg></svg></g><g><svg viewBox="0 0 395.52 247.2" height="247.2" width="395.52"><mask id="SvgjsMask14425"><g transform="matrix(1,0,0,1,118.65599999999999,81.4379695431472)"><svg viewBox="0 0 158.208 84.32406091370558" height="84.32406091370558" width="158.208"><g><svg viewBox="0 0 158.208 84.32406091370558" height="84.32406091370558" width="158.208"><g><svg viewBox="0 0 158.208 84.32406091370558" height="84.32406091370558" width="158.208"><g><svg viewBox="0 0 158.208 84.32406091370558" height="84.32406091370558" width="158.208"><g id="SvgjsG14424"><svg viewBox="0 0 158.208 84.32406091370558" height="84.32406091370558" width="158.208" id="SvgjsSvg14423"><g><svg viewBox="0 0 158.208 84.32406091370558" height="84.32406091370558" width="158.208"><g transform="matrix(1,0,0,1,0,0)"><svg width="158.208" viewBox="-0.7999999523162842 -39.5 79.80000305175781 43" height="84.32406091370558" data-palette-color="url(#90777d36-ce33-4aa6-96fa-a238995d89d3)"></svg></g></svg></g></svg></g></svg></g><g></g></svg></g></svg></g></svg></g></mask><g transform="matrix(1,0,0,1,118.65599999999999,81.4379695431472)"><svg viewBox="0 0 158.208 84.32406091370558" height="84.32406091370558" width="158.208"><g><svg viewBox="0 0 158.208 84.32406091370558" height="84.32406091370558" width="158.208"><g><svg viewBox="0 0 158.208 84.32406091370558" height="84.32406091370558" width="158.208"><g><svg viewBox="0 0 158.208 84.32406091370558" height="84.32406091370558" width="158.208"><g id="SvgjsG14421"><svg viewBox="0 0 158.208 84.32406091370558" height="84.32406091370558" width="158.208" id="SvgjsSvg14420"><g><svg viewBox="0 0 158.208 84.32406091370558" height="84.32406091370558" width="158.208"><g transform="matrix(1,0,0,1,0,0)"><svg width="158.208" viewBox="-0.7999999523162842 -39.5 79.80000305175781 43" height="84.32406091370558" data-palette-color="url(#90777d36-ce33-4aa6-96fa-a238995d89d3)"><path d="M8.5-13.6L8.5-15.15Q8.5-16.5 8.72-17.65 8.95-18.8 9.3-19.8L9.3-19.8 12.5-28Q13-29.25 13.6-30.13 14.2-31 15.7-31L15.7-31 20.6-31Q22-31 22.6-30.13 23.2-29.25 23.75-27.95L23.75-27.95 27.2-19.8Q27.55-18.8 27.78-17.65 28-16.5 28-15.15L28-15.15 28-13.6 8.5-13.6ZM16.5-25.5L16.5-25.5 14.15-17.9 22-17.9 19.65-25.5Q19.45-25.95 19.23-26.15 19-26.35 18.7-26.35L18.7-26.35 17.45-26.35Q17.15-26.35 16.93-26.15 16.7-25.95 16.5-25.5ZM28-13.1L28-4.5 28.5-4.5 28.5-15.15Q28.5-16.55 28.28-17.73 28.05-18.9 27.65-20L27.65-20 24.2-28.15Q23.6-29.6 22.93-30.55 22.25-31.5 20.6-31.5L20.6-31.5 15.7-31.5Q14-31.5 13.3-30.55 12.6-29.6 12.05-28.2L12.05-28.2 8.85-20Q8.45-18.9 8.22-17.73 8-16.55 8-15.15L8-15.15 8-4.5 8.5-4.5 8.5-13.1 28-13.1ZM13.65-8.8L13.65-1.8Q13.65-0.85 13.23-0.43 12.8 0 11.85 0L11.85 0 4.5 0Q3.55 0 3.13-0.43 2.7-0.85 2.7-1.8L2.7-1.8 2.7-15Q2.7-16.5 3.18-18.45 3.65-20.4 4.65-23L4.65-23 9-34.35Q9.3-35.2 9.93-35.6 10.55-36 11.55-36L11.55-36 25-36Q25.95-36 26.58-35.6 27.2-35.2 27.5-34.35L27.5-34.35 31.85-23Q32.85-20.4 33.33-18.45 33.8-16.5 33.8-15L33.8-15 33.8-1.8Q33.8-0.85 33.38-0.43 32.95 0 32 0L32 0 24.45 0Q23.45 0 22.98-0.43 22.5-0.85 22.5-1.8L22.5-1.8 22.5-8.8 13.65-8.8ZM57.55-19.25L57.55-19.25Q56.65-19.25 56.25-19.65 55.85-20.05 55-21.35L55-21.35 48.9-30.65Q48.6-31.15 48.2-31.33 47.8-31.5 47.4-31.5L47.4-31.5 46.55-31.5Q45.9-31.5 45.57-31.13 45.25-30.75 45.25-29.95L45.25-29.95 45.25-4.5 45.75-4.5 45.75-29.95Q45.75-30.35 45.9-30.68 46.05-31 46.55-31L46.55-31 47.3-31Q47.65-31 47.92-30.9 48.2-30.8 48.5-30.3L48.5-30.3 54.6-21.1Q55.5-19.75 55.97-19.25 56.45-18.75 57.55-18.75L57.55-18.75Q58.65-18.75 59.12-19.25 59.6-19.75 60.5-21.1L60.5-21.1 66.6-30.3Q66.9-30.8 67.15-30.9 67.4-31 67.75-31L67.75-31 68.5-31Q69-31 69.17-30.68 69.35-30.35 69.35-29.95L69.35-29.95 69.35-4.5 69.85-4.5 69.85-29.95Q69.85-30.75 69.52-31.13 69.2-31.5 68.5-31.5L68.5-31.5 67.65-31.5Q67.25-31.5 66.87-31.33 66.5-31.15 66.2-30.65L66.2-30.65 60.1-21.35Q59.25-20.05 58.85-19.65 58.45-19.25 57.55-19.25ZM49.2 0L49.2 0 41.75 0Q40.8 0 40.37-0.43 39.95-0.85 39.95-1.8L39.95-1.8 39.95-34.2Q39.95-35.15 40.37-35.58 40.8-36 41.75-36L41.75-36 49.8-36Q50.6-36 51.12-35.65 51.65-35.3 52.1-34.5L52.1-34.5 56.6-26.35Q56.85-25.9 57.02-25.7 57.2-25.5 57.5-25.5L57.5-25.5 57.95-25.5Q58.25-25.5 58.42-25.7 58.6-25.9 58.85-26.35L58.85-26.35 63.3-34.5Q63.75-35.3 64.27-35.65 64.8-36 65.6-36L65.6-36 73.7-36Q74.65-36 75.07-35.58 75.5-35.15 75.5-34.2L75.5-34.2 75.5-1.8Q75.5-0.85 75.07-0.43 74.65 0 73.7 0L73.7 0 66 0Q65.05 0 64.62-0.43 64.2-0.85 64.2-1.8L64.2-1.8 64.2-19.4 61.25-13.95Q60.8-13.1 60.17-12.73 59.55-12.35 58.6-12.35L58.6-12.35 56.6-12.35Q55.65-12.35 55.02-12.73 54.4-13.1 53.95-13.95L53.95-13.95 51-19.4 51-1.8Q51-0.85 50.57-0.43 50.15 0 49.2 0Z" opacity="1" transform="matrix(1,0,0,1,0,0)" fill="white" class="wordmark-text-0" id="SvgjsPath14419"></path></svg></g></svg></g></svg></g></svg></g><g></g></svg></g></svg></g></svg></g><g mask="url(#64248d4c-e81e-43ff-859f-779c3fe37c92)"><g transform="matrix(3.2391018478857907, 0, 0, 3.2391018478857907, 43.25485174080214, 1)"><svg xmlns="http://www.w3.org/2000/svg" xmlns:xlink="http://www.w3.org/1999/xlink" version="1.1" x="0" y="0" viewBox="2.3000001907348633 12.100000381469727 95.39999389648438 75.69999694824219" enable-background="new 0 0 100 100" xml:space="preserve" height="75.69999694824219" width="95.39999389648438" class="icon-none" data-fill-palette-color="accent" id="SvgjsSvg14418"></svg></g></g></svg></g><defs><mask></mask></defs></svg></g></mask><linearGradient x1="0" x2="1" y1="0.548" y2="0.55" id="90777d36-ce33-4aa6-96fa-a238995d89d3"><stop stop-color="#ff6cab" offset="0"></stop><stop stop-color="#7366ff" offset="1"></stop></linearGradient><rect width="395.5199890136719" height="247.1999969482422" fill="url(#90777d36-ce33-4aa6-96fa-a238995d89d3)" mask="url(#091e4fa2-5ff2-4795-bdeb-6b28b4bf4aaa)" data-fill-palette-color="primary"></rect><mask id="3dfac137-23b3-4136-a7e1-35d99ffaa007"><g id="SvgjsG14442"><svg viewBox="0 0 395.52 247.2" height="247.2" width="395.52"><g><svg></svg></g><g><svg viewBox="0 0 395.52 247.2" height="247.2" width="395.52"><mask id="SvgjsMask14441"><g transform="matrix(1,0,0,1,118.65599999999999,81.4379695431472)"><svg viewBox="0 0 158.208 84.32406091370558" height="84.32406091370558" width="158.208"><g><svg viewBox="0 0 158.208 84.32406091370558" height="84.32406091370558" width="158.208"><g><svg viewBox="0 0 158.208 84.32406091370558" height="84.32406091370558" width="158.208"><g><svg viewBox="0 0 158.208 84.32406091370558" height="84.32406091370558" width="158.208"><g id="SvgjsG14440"><svg viewBox="0 0 158.208 84.32406091370558" height="84.32406091370558" width="158.208" id="SvgjsSvg14439"><g><svg viewBox="0 0 158.208 84.32406091370558" height="84.32406091370558" width="158.208"><g transform="matrix(1,0,0,1,0,0)"><svg width="158.208" viewBox="-0.7999999523162842 -39.5 79.80000305175781 43" height="84.32406091370558" data-palette-color="url(#90777d36-ce33-4aa6-96fa-a238995d89d3)"></svg></g></svg></g></svg></g></svg></g><g></g></svg></g></svg></g></svg></g></mask><g transform="matrix(1,0,0,1,118.65599999999999,81.4379695431472)"><svg viewBox="0 0 158.208 84.32406091370558" height="84.32406091370558" width="158.208"><g><svg viewBox="0 0 158.208 84.32406091370558" height="84.32406091370558" width="158.208"><g><svg viewBox="0 0 158.208 84.32406091370558" height="84.32406091370558" width="158.208"><g><svg viewBox="0 0 158.208 84.32406091370558" height="84.32406091370558" width="158.208"><g id="SvgjsG14437"><svg viewBox="0 0 158.208 84.32406091370558" height="84.32406091370558" width="158.208" id="SvgjsSvg14436"><g><svg viewBox="0 0 158.208 84.32406091370558" height="84.32406091370558" width="158.208"><g transform="matrix(1,0,0,1,0,0)"><svg width="158.208" viewBox="-0.7999999523162842 -39.5 79.80000305175781 43" height="84.32406091370558" data-palette-color="url(#90777d36-ce33-4aa6-96fa-a238995d89d3)"></svg></g></svg></g></svg></g></svg></g><g></g></svg></g></svg></g></svg></g><g mask="url(#64248d4c-e81e-43ff-859f-779c3fe37c92)"><g transform="matrix(3.2391018478857907, 0, 0, 3.2391018478857907, 43.25485174080214, 1)"><svg xmlns="http://www.w3.org/2000/svg" xmlns:xlink="http://www.w3.org/1999/xlink" version="1.1" x="0" y="0" viewBox="2.3000001907348633 12.100000381469727 95.39999389648438 75.69999694824219" enable-background="new 0 0 100 100" xml:space="preserve" height="75.69999694824219" width="95.39999389648438" class="icon-none" data-fill-palette-color="accent" id="SvgjsSvg14435"><path d="M84.7 25.7c-0.5-2.2-1.3-4.4-2.4-6.5 3.2 1.2 5.8 3.5 7.4 6.5H84.7zM72.2 19.2c-3.2 1.2-5.9 3.5-7.6 6.5h5C70.2 23.4 71.1 21.2 72.2 19.2zM76.1 18.3c-1.5 2.3-2.7 4.8-3.4 7.4h9c-0.7-2.6-1.8-5.1-3.3-7.4-0.4 0-0.8-0.1-1.3-0.1C76.8 18.3 76.5 18.3 76.1 18.3zM15.4 66.2V72h61.8v-5-2.9V57c2.6 0 5.2-0.4 7.7-1.2v8.4 2.9 4.5c0 1 0.3 2 1 2.7l3.9 4.8c0.3 0.4 0.5 0.8 0.5 1.3v2.2c0 2.9-2.3 5.2-5.2 5.2H7.5c-2.9 0-5.2-2.3-5.2-5.2v-2.2c0-0.5 0.2-0.9 0.5-1.3l4-4.9c0.6-0.8 1-1.7 1-2.7v-5.7-1.7V32.6c0-4.2 3.4-7.7 7.7-7.7H54c-0.8 2.5-1.2 5.1-1.2 7.7H15.4c0 0 0 0 0 0v31.6V66.2zM38 80.3c0 1.5 1.2 2.7 2.7 2.7H52c1.5 0 2.7-1.2 2.7-2.7v-0.6H38V80.3zM68.8 32.8c0-1.4 0.1-2.8 0.3-4.2h-5.7c-0.4 1.3-0.6 2.6-0.6 4 0 1.4 0.2 2.7 0.6 3.9h5.6C68.9 35.3 68.8 34 68.8 32.8zM64.6 39.5c1.6 2.9 4.2 5.2 7.3 6.5-1.1-2.1-1.8-4.2-2.4-6.5H64.6zM71.7 32.8c0 1.3 0.1 2.5 0.3 3.8h10.3c0.2-1.4 0.3-2.7 0.3-4.1 0-1.3-0.1-2.5-0.3-3.8H72.1C71.8 30 71.7 31.4 71.7 32.8zM91.7 18.1c8 8 8 21 0 28.9-6.7 6.7-17 7.8-24.8 3.2l0 0c-3.1 2.3-6.4 2.7-8.7 2.4-0.8-0.1-0.9-1.2-0.2-1.5 2.1-1 3.4-3.1 4.2-4.8l-0.2-0.2c-7.1-8-6.8-20.3 0.9-28C70.7 10.1 83.7 10.1 91.7 18.1zM89.4 20.4c-3.3-3.3-7.6-5.1-12.2-5.1-4.6 0-8.9 1.8-12.2 5.1C61.8 23.7 60 28 60 32.6c0 4.6 1.8 8.9 5.1 12.2 3.3 3.3 7.6 5.1 12.2 5.1 4.6 0 8.9-1.8 12.2-5.1 3.3-3.3 5.1-7.6 5.1-12.2C94.5 28 92.7 23.7 89.4 20.4zM75.9 46.9c0.4 0 0.9 0.1 1.3 0.1 0.3 0 0.7 0 1 0 1.5-2.3 2.7-4.8 3.4-7.4h-9.1C73.3 42.1 74.4 44.6 75.9 46.9zM85.5 32.4c0 1.4-0.1 2.8-0.3 4.1H91c0.4-1.3 0.6-2.6 0.6-3.9 0-1.4-0.2-2.7-0.6-4h-5.7C85.4 29.9 85.5 31.1 85.5 32.4zM82.1 46.1c3.3-1.2 6-3.6 7.7-6.6h-5.1C84.1 41.8 83.2 44 82.1 46.1z" fill="white"></path></svg></g></g></svg></g><defs><mask></mask></defs><mask><g id="SvgjsG14434"><svg viewBox="0 0 395.52 247.2" height="247.2" width="395.52"><g><svg></svg></g><g><svg viewBox="0 0 395.52 247.2" height="247.2" width="395.52"><mask id="SvgjsMask14433"><g transform="matrix(1,0,0,1,118.65599999999999,81.4379695431472)"><svg viewBox="0 0 158.208 84.32406091370558" height="84.32406091370558" width="158.208"><g><svg viewBox="0 0 158.208 84.32406091370558" height="84.32406091370558" width="158.208"><g><svg viewBox="0 0 158.208 84.32406091370558" height="84.32406091370558" width="158.208"><g><svg viewBox="0 0 158.208 84.32406091370558" height="84.32406091370558" width="158.208"><g id="SvgjsG14432"><svg viewBox="0 0 158.208 84.32406091370558" height="84.32406091370558" width="158.208" id="SvgjsSvg14431"><g><svg viewBox="0 0 158.208 84.32406091370558" height="84.32406091370558" width="158.208"><g transform="matrix(1,0,0,1,0,0)"><svg width="158.208" viewBox="-0.7999999523162842 -39.5 79.80000305175781 43" height="84.32406091370558" data-palette-color="url(#90777d36-ce33-4aa6-96fa-a238995d89d3)"></svg></g></svg></g></svg></g></svg></g><g></g></svg></g></svg></g></svg></g></mask><g transform="matrix(1,0,0,1,118.65599999999999,81.4379695431472)"><svg viewBox="0 0 158.208 84.32406091370558" height="84.32406091370558" width="158.208"><g><svg viewBox="0 0 158.208 84.32406091370558" height="84.32406091370558" width="158.208"><g><svg viewBox="0 0 158.208 84.32406091370558" height="84.32406091370558" width="158.208"><g><svg viewBox="0 0 158.208 84.32406091370558" height="84.32406091370558" width="158.208"><g id="SvgjsG14430"><svg viewBox="0 0 158.208 84.32406091370558" height="84.32406091370558" width="158.208" id="SvgjsSvg14429"><g><svg viewBox="0 0 158.208 84.32406091370558" height="84.32406091370558" width="158.208"><g transform="matrix(1,0,0,1,0,0)"><svg width="158.208" viewBox="-0.7999999523162842 -39.5 79.80000305175781 43" height="84.32406091370558" data-palette-color="url(#90777d36-ce33-4aa6-96fa-a238995d89d3)"></svg></g></svg></g></svg></g></svg></g><g></g></svg></g></svg></g></svg></g><g mask="url(#64248d4c-e81e-43ff-859f-779c3fe37c92)"><g transform="matrix(3.2391018478857907, 0, 0, 3.2391018478857907, 43.25485174080214, 1)"><svg xmlns="http://www.w3.org/2000/svg" xmlns:xlink="http://www.w3.org/1999/xlink" version="1.1" x="0" y="0" viewBox="2.3000001907348633 12.100000381469727 95.39999389648438 75.69999694824219" enable-background="new 0 0 100 100" xml:space="preserve" height="75.69999694824219" width="95.39999389648438" class="icon-none" data-fill-palette-color="accent" id="SvgjsSvg14427"></svg></g></g></svg></g><defs><mask></mask></defs></svg></g></mask></svg></g></mask><linearGradient x1="0" x2="1" y1="0.578" y2="0.595" id="9bb09bf5-36c1-429f-bff9-1bb13e0476f2"><stop stop-color="#6ee2f5" offset="0"></stop><stop stop-color="#6454f0" offset="1"></stop></linearGradient><rect width="395.5199890136719" height="247.1999969482422" fill="url(#9bb09bf5-36c1-429f-bff9-1bb13e0476f2)" mask="url(#3dfac137-23b3-4136-a7e1-35d99ffaa007)" data-fill-palette-color="accent"></rect></svg><rect width="395.52" height="247.2" fill="none" stroke="none" visibility="hidden"></rect></g></svg></g></svg>